<?xml version="1.0" encoding="UTF-8"?>
<svg xmlns="http://www.w3.org/2000/svg" width="120" height="60" viewBox="0 0 120 60">
  <!-- Bandeira dos EUA -->
  <g transform="translate(60,0)">
    <rect width="60" height="60" fill="#fff"/>
    <g fill="#bd3d44">
      <rect width="60" height="4.6" y="0"/>
      <rect width="60" height="4.6" y="9.2"/>
      <rect width="60" height="4.6" y="18.4"/>
      <rect width="60" height="4.6" y="27.6"/>
      <rect width="60" height="4.6" y="36.8"/>
      <rect width="60" height="4.6" y="46"/>
      <rect width="60" height="4.6" y="55.2"/>
    </g>
    <rect width="30" height="32.2" fill="#192f5d"/>
    <g fill="#fff">
      <circle cx="5" cy="5" r="1"/>
      <circle cx="10" cy="5" r="1"/>
      <circle cx="15" cy="5" r="1"/>
      <circle cx="20" cy="5" r="1"/>
      <circle cx="25" cy="5" r="1"/>
      <circle cx="5" cy="10" r="1"/>
      <circle cx="10" cy="10" r="1"/>
      <circle cx="15" cy="10" r="1"/>
      <circle cx="20" cy="10" r="1"/>
      <circle cx="25" cy="10" r="1"/>
      <circle cx="5" cy="15" r="1"/>
      <circle cx="10" cy="15" r="1"/>
      <circle cx="15" cy="15" r="1"/>
      <circle cx="20" cy="15" r="1"/>
      <circle cx="25" cy="15" r="1"/>
      <circle cx="5" cy="20" r="1"/>
      <circle cx="10" cy="20" r="1"/>
      <circle cx="15" cy="20" r="1"/>
      <circle cx="20" cy="20" r="1"/>
      <circle cx="25" cy="20" r="1"/>
    </g>
  </g>
  <!-- Bandeira do Brasil -->
  <g transform="translate(0,0)">
    <rect width="60" height="60" fill="#009b3a"/>
    <path d="M30,5 L55,30 L30,55 L5,30 L30,5z" fill="#fedf00"/>
    <circle cx="30" cy="30" r="13" fill="#002776"/>
    <path d="M30,25 A10,10 0 0 1 40,30 A15,15 0 0 0 30,35 A10,10 0 0 1 20,30 A15,15 0 0 0 30,25z" fill="#fff"/>
  </g>
</svg>